<mxfile host="app.diagrams.net" agent="Mozilla/5.0 (X11; Ubuntu; Linux x86_64; rv:131.0) Gecko/20100101 Firefox/131.0" version="24.7.17">
  <diagram name="Page-1" id="qrz2gZggkwzGiGXZ_AEm">
    <mxGraphModel dx="492" dy="524" grid="0" gridSize="10" guides="1" tooltips="1" connect="1" arrows="1" fold="1" page="1" pageScale="1" pageWidth="850" pageHeight="1100" math="0" shadow="0">
      <root>
        <mxCell id="0" />
        <mxCell id="1" parent="0" />
        <mxCell id="Ard1cTKKCwln5eHEH9hg-17" style="edgeStyle=orthogonalEdgeStyle;rounded=0;orthogonalLoop=1;jettySize=auto;html=1;exitX=0.5;exitY=1;exitDx=0;exitDy=0;" edge="1" parent="1" source="Ard1cTKKCwln5eHEH9hg-1" target="Ard1cTKKCwln5eHEH9hg-5">
          <mxGeometry relative="1" as="geometry" />
        </mxCell>
        <mxCell id="Ard1cTKKCwln5eHEH9hg-1" value="Start" style="rounded=1;whiteSpace=wrap;html=1;" vertex="1" parent="1">
          <mxGeometry x="466" y="15" width="60" height="24" as="geometry" />
        </mxCell>
        <mxCell id="Ard1cTKKCwln5eHEH9hg-19" value="" style="edgeStyle=orthogonalEdgeStyle;rounded=0;orthogonalLoop=1;jettySize=auto;html=1;" edge="1" parent="1" source="Ard1cTKKCwln5eHEH9hg-5" target="Ard1cTKKCwln5eHEH9hg-18">
          <mxGeometry relative="1" as="geometry" />
        </mxCell>
        <mxCell id="Ard1cTKKCwln5eHEH9hg-5" value="Aritmética" style="swimlane;fontStyle=0;childLayout=stackLayout;horizontal=1;startSize=26;horizontalStack=0;resizeParent=1;resizeParentMax=0;resizeLast=0;collapsible=1;marginBottom=0;align=center;fontSize=14;" vertex="1" collapsed="1" parent="1">
          <mxGeometry x="274" y="173" width="97" height="29" as="geometry">
            <mxRectangle x="303" y="114" width="299" height="146" as="alternateBounds" />
          </mxGeometry>
        </mxCell>
        <mxCell id="Ard1cTKKCwln5eHEH9hg-9" value="Fundamentos da matematica elementar I" style="text;strokeColor=none;fillColor=none;spacingLeft=4;spacingRight=4;overflow=hidden;rotatable=0;points=[[0,0.5],[1,0.5]];portConstraint=eastwest;fontSize=12;whiteSpace=wrap;html=1;" vertex="1" parent="Ard1cTKKCwln5eHEH9hg-5">
          <mxGeometry y="26" width="299" height="30" as="geometry" />
        </mxCell>
        <mxCell id="Ard1cTKKCwln5eHEH9hg-7" value="O algebrista" style="text;strokeColor=none;fillColor=none;spacingLeft=4;spacingRight=4;overflow=hidden;rotatable=0;points=[[0,0.5],[1,0.5]];portConstraint=eastwest;fontSize=12;whiteSpace=wrap;html=1;" vertex="1" parent="Ard1cTKKCwln5eHEH9hg-5">
          <mxGeometry y="56" width="299" height="30" as="geometry" />
        </mxCell>
        <mxCell id="Ard1cTKKCwln5eHEH9hg-11" value="Matemática para vencer" style="text;strokeColor=none;fillColor=none;spacingLeft=4;spacingRight=4;overflow=hidden;rotatable=0;points=[[0,0.5],[1,0.5]];portConstraint=eastwest;fontSize=12;whiteSpace=wrap;html=1;" vertex="1" parent="Ard1cTKKCwln5eHEH9hg-5">
          <mxGeometry y="86" width="299" height="30" as="geometry" />
        </mxCell>
        <mxCell id="Ard1cTKKCwln5eHEH9hg-8" value="&lt;span&gt;&lt;/span&gt;&lt;div&gt;&lt;div&gt;&lt;div&gt;Arithmetic For The Practical Man - Thompson, J. E. &lt;/div&gt;&lt;/div&gt;&lt;/div&gt;" style="text;strokeColor=none;fillColor=none;spacingLeft=4;spacingRight=4;overflow=hidden;rotatable=0;points=[[0,0.5],[1,0.5]];portConstraint=eastwest;fontSize=12;whiteSpace=wrap;html=1;" vertex="1" parent="Ard1cTKKCwln5eHEH9hg-5">
          <mxGeometry y="116" width="299" height="30" as="geometry" />
        </mxCell>
        <mxCell id="Ard1cTKKCwln5eHEH9hg-16" value="&lt;a href=&quot;https://github.com/TalalAlrawajfeh/mathematics-roadmap/blob/master/mathematics-roadmap.jpg&quot;&gt;Roadmap&lt;/a&gt;" style="whiteSpace=wrap;html=1;" vertex="1" parent="1">
          <mxGeometry x="545" y="13" width="74" height="28" as="geometry" />
        </mxCell>
        <mxCell id="Ard1cTKKCwln5eHEH9hg-18" value="" style="whiteSpace=wrap;html=1;fontSize=14;fontStyle=0;startSize=26;" vertex="1" parent="1">
          <mxGeometry x="449" y="171" width="101" height="33" as="geometry" />
        </mxCell>
      </root>
    </mxGraphModel>
  </diagram>
</mxfile>
